<?xml version="1.0" encoding="UTF-8"?>
<svg id="Layer_1" xmlns="http://www.w3.org/2000/svg" xmlns:xlink="http://www.w3.org/1999/xlink" version="1.1" viewBox="0 0 612 620">
  <!-- Generator: Adobe Illustrator 30.2.1, SVG Export Plug-In . SVG Version: 2.1.1 Build 1)  -->
  <defs>
    <style>
      .st0, .st1, .st2, .st3, .st4, .st5, .st6, .st7 {
        fill: none;
      }

      .st8 {
        fill: #111;
      }

      .st1 {
        stroke-width: .9px;
      }

      .st1, .st2, .st3, .st4 {
        stroke: #111;
      }

      .st1, .st2, .st3, .st4, .st5, .st6, .st7 {
        stroke-miterlimit: 3.6;
      }

      .st2 {
        stroke-width: .72px;
      }

      .st3, .st5 {
        stroke-width: .54px;
      }

      .st4 {
        stroke-width: 1.35px;
      }

      .st5, .st6, .st7 {
        stroke: #fff;
      }

      .st9 {
        clip-path: url(#clippath-1);
      }

      .st10 {
        clip-path: url(#clippath-2);
      }

      .st6 {
        stroke-width: 1.08px;
      }

      .st7 {
        stroke-width: 1.44px;
      }

      .st11 {
        fill: #fff;
      }

      .st12 {
        clip-path: url(#clippath);
      }
    </style>
    <clipPath id="clippath">
      <polygon class="st0" points="136.8 454 136.8 103 142.2 88.6 147.6 77.8 261 77.8 266.4 88.6 268.2 103 268.2 454 136.8 454"/>
    </clipPath>
    <clipPath id="clippath-1">
      <polygon class="st0" points="336.6 454 336.6 113.8 342 97.6 349.2 86.8 462.6 86.8 468 97.6 471.6 113.8 471.6 454 336.6 454"/>
    </clipPath>
    <clipPath id="clippath-2">
      <rect class="st0" x="115.2" y="454" width="378" height="97.2"/>
    </clipPath>
  </defs>
  <rect class="st11" y="31" width="612" height="558"/>
  <path class="st8" d="M136.8,454V103l5.4-14.4,5.4-10.8h113.4l5.4,10.8,1.8,14.4v351h-131.4Z"/>
  <g class="st12">
    <g>
      <line class="st5" x1="164.7" y1="67" x2="164.7" y2="463"/>
      <line class="st5" x1="192.6" y1="67" x2="192.6" y2="463"/>
      <line class="st7" x1="202.5" y1="67" x2="202.5" y2="463"/>
      <line class="st5" x1="212.4" y1="67" x2="212.4" y2="463"/>
      <line class="st5" x1="240.3" y1="67" x2="240.3" y2="463"/>
    </g>
  </g>
  <rect class="st11" x="144" y="148" width="5.4" height="18"/>
  <rect class="st11" x="257.4" y="148" width="5.4" height="18"/>
  <path class="st8" d="M336.6,454V113.8l5.4-16.2,7.2-10.8h113.4l5.4,10.8,3.6,16.2v340.2h-135Z"/>
  <g class="st9">
    <g>
      <line class="st5" x1="364.5" y1="76" x2="364.5" y2="463"/>
      <line class="st5" x1="392.4" y1="76" x2="392.4" y2="463"/>
      <line class="st7" x1="405.9" y1="76" x2="405.9" y2="463"/>
      <line class="st5" x1="419.4" y1="76" x2="419.4" y2="463"/>
      <line class="st5" x1="447.3" y1="76" x2="447.3" y2="463"/>
    </g>
  </g>
  <rect class="st11" x="343.8" y="161.5" width="5.4" height="18"/>
  <rect class="st11" x="459" y="161.5" width="5.4" height="18"/>
  <rect class="st8" x="115.2" y="454" width="378" height="97.2"/>
  <g class="st10">
    <g>
      <line class="st5" x1="153" y1="445" x2="153" y2="554.8"/>
      <line class="st5" x1="190.8" y1="445" x2="190.8" y2="554.8"/>
      <line class="st5" x1="228.6" y1="445" x2="228.6" y2="554.8"/>
      <line class="st5" x1="266.4" y1="445" x2="266.4" y2="554.8"/>
      <line class="st5" x1="304.2" y1="445" x2="304.2" y2="554.8"/>
      <line class="st5" x1="342" y1="445" x2="342" y2="554.8"/>
      <line class="st5" x1="379.8" y1="445" x2="379.8" y2="554.8"/>
      <line class="st5" x1="417.6" y1="445" x2="417.6" y2="554.8"/>
      <line class="st5" x1="455.4" y1="445" x2="455.4" y2="554.8"/>
      <line class="st6" x1="115.2" y1="502.6" x2="493.2" y2="502.6"/>
    </g>
  </g>
  <rect class="st11" x="186.3" y="509.8" width="32.4" height="41.4"/>
  <rect class="st1" x="186.3" y="509.8" width="32.4" height="41.4"/>
  <line class="st2" x1="202.5" y1="509.8" x2="202.5" y2="551.2"/>
  <line class="st3" x1="186.3" y1="513.4" x2="202.5" y2="513.4"/>
  <line class="st3" x1="202.5" y1="513.4" x2="218.7" y2="513.4"/>
  <line class="st4" x1="86.4" y1="551.2" x2="525.6" y2="551.2"/>
</svg>